HIERARCHY
ROOT pelvis
{
  OFFSET 0 100 0
  CHANNELS 6 Xposition Yposition Zposition Zrotation Xrotation Yrotation
  JOINT pelvis_right_femur
  {
    OFFSET -10.78128 -3.44521 -0.5502486
    CHANNELS 3 Zrotation Xrotation Yrotation
    JOINT right_femur_tibia
    {
      OFFSET -0.8047443 -44.0398 -0.1307829
      CHANNELS 3 Zrotation Xrotation Yrotation
      JOINT right_tibia_foot
      {
        OFFSET 3.006224 -47.83518 -5
        CHANNELS 3 Zrotation Xrotation Yrotation
        End Site
        {
          OFFSET 0 -5 15
        }
      }
    }
  }
  JOINT pelvis_left_femur
  {
    OFFSET 10.78128 -3.44521 -0.5502486
    CHANNELS 3 Zrotation Xrotation Yrotation
    JOINT left_femur_tibia
    {
      OFFSET 0.8047443 -44.0398 -0.1307829
      CHANNELS 3 Zrotation Xrotation Yrotation
      JOINT left_tibia_foot
      {
        OFFSET -4.370144 -48.10324 -4.275266
        CHANNELS 3 Zrotation Xrotation Yrotation
        End Site
        {
          OFFSET 0 -5 15
        }
      }
    }
  }
  JOINT pelvis_spine1
  {
    OFFSET 0 6.468898 -3.129235
    CHANNELS 3 Zrotation Xrotation Yrotation
    JOINT spine1
    {
      OFFSET 0 23.15396 4.99043
      CHANNELS 3 Zrotation Xrotation Yrotation
      JOINT spine2
      {
        OFFSET 0 20.79997 -5.064912
        CHANNELS 3 Zrotation Xrotation Yrotation
        JOINT neck
        {
          OFFSET 0 14.38658 9.616178
          CHANNELS 3 Zrotation Xrotation Yrotation
          End Site
          {
            OFFSET 0 20 0
          }
        }
      }
      JOINT right_manubrium
      {
        OFFSET -5.722621 16.35077 3.967754
        CHANNELS 3 Zrotation Xrotation Yrotation
        JOINT right_clavicle
        {
          OFFSET -13.16364 1.694482 -4.693211
          CHANNELS 3 Zrotation Xrotation Yrotation
          JOINT right_humerus
          {
            OFFSET -28.5034 -0.3100689 -2.792744
            CHANNELS 3 Zrotation Xrotation Yrotation
            JOINT right_radius
            {
              OFFSET -25.15693 0.02248979 -1.271978
              CHANNELS 3 Zrotation Xrotation Yrotation
              End Site
              {
                OFFSET -15 0 0
              }
            }
          }
        }
      }
      JOINT left_manubrium
      {
        OFFSET 5.722621 16.35077 3.967754
        CHANNELS 3 Zrotation Xrotation Yrotation
        JOINT left_clavicle
        {
          OFFSET 13.16364 1.694482 -4.693211
          CHANNELS 3 Zrotation Xrotation Yrotation
          JOINT left_humerus
          {
            OFFSET 29.39168 -1.063119 -2.237045
            CHANNELS 3 Zrotation Xrotation Yrotation
            JOINT left_radius
            {
              OFFSET 24.59957 -0.9528479 0.9047498
              CHANNELS 3 Zrotation Xrotation Yrotation
              End Site
              {
                OFFSET 15 -0 -0
              }
            }
          }
        }
      }
    }
  }
}
MOTION
Frames: 13
Frame Time: 0.0416666666667
1326.74 98.25104 2236.757 0.5215429 -1.449519 60.61286 5.353192 -29.92479 3.020564 -0 17.89038 -0 -9.234967 -3.321367 -6.666811 -3.421097 18.50634 -15.62367 -0 19.07573 -0 -10.89677 -22.7354 11.39782 -1.362725 1.050768 1.139824 2.414301 5.454927 -7.878246 2.303303 23.13565 5.976337 3.636896 -22.04841 7.476781 3.07084 -13.99529 9.554903 89.64476 29.88174 -22.74084 -0 0 8.195755 -10.65105 7.274681 5.614243 5.084515 -19.86439 -3.884153 -90.30792 38.09292 15.49381 0 0 -23.56586 -8.879202 14.90843 25.86263
1330.975 98.01566 2239.743 -0.2938926 -1.841802 60.73951 6.552964 -29.35403 3.381229 -0 17.44105 -0 -9.716833 -3.021969 -6.39051 -2.784615 17.20908 -14.78357 -0 25.20599 -0 -11.43659 -19.8398 10.39391 -0.4236383 1.120476 1.045574 2.536342 5.625918 -7.836294 2.322101 23.00857 5.955904 3.480837 -22.53237 7.638815 3.276602 -13.68301 9.760113 89.58561 30.3929 -22.38002 -0 0 7.618413 -10.97409 8.277934 5.976018 4.689901 -19.52795 -3.686943 -90.45009 36.67947 15.83187 0 0 -22.16883 -7.328625 15.19345 24.40313
1335.498 98.19418 2242.886 -0.6968607 -2.225728 60.68749 7.409167 -26.77302 3.67534 -0 17.54971 -0 -10.10611 -3.587519 -6.105007 -2.348926 14.97567 -13.81389 -0 32.82302 -0 -11.37457 -16.07586 9.708919 0.3721195 1.03423 1.172712 2.654864 5.977504 -7.713347 2.244043 23.03497 5.89524 3.177575 -22.84352 7.743831 3.474923 -13.52339 10.08099 89.47582 30.81376 -21.84142 -0 0 7.054387 -11.41735 9.271748 6.550471 4.067269 -19.09676 -3.482297 -90.56943 34.97145 16.26782 0 0 -20.46281 -5.579399 15.22463 22.54559
1340.233 98.81006 2246.104 -0.5999943 -2.491226 60.43803 7.708955 -22.34438 3.760917 -0 17.84006 -0 -10.25264 -4.939862 -5.725842 -2.178136 11.54658 -12.79812 -0 41.3526 -0 -10.833 -12.03105 9.36389 0.8605769 0.8573173 1.653001 2.70082 6.495016 -7.450365 2.101959 23.20152 5.796735 2.817215 -22.90855 7.763871 3.70059 -13.57309 10.48659 89.18837 31.21936 -21.095 -0 0 6.712135 -12.00635 10.22726 7.240449 3.390829 -18.68565 -3.247945 -90.69033 33.14489 16.81463 0 0 -18.76242 -3.791352 15.01504 20.45204
1345.066 99.78689 2249.304 0.02110974 -2.565777 60.01986 7.40115 -16.69778 3.599064 -0 17.76349 -0 -10.05462 -6.728943 -5.175096 -2.252322 6.845968 -11.77079 -0 49.69593 -0 -10.01296 -8.511063 9.394912 0.9121874 0.7165661 2.536975 2.607254 7.136703 -7.014659 1.947417 23.45447 5.654318 2.516194 -22.66542 7.659021 3.959674 -13.86909 10.91982 88.59914 31.6647 -20.09514 -0 0 6.792287 -12.76511 11.07534 7.92681 2.891892 -18.43767 -2.9871 -90.78098 31.3619 17.39585 0 0 -17.43548 -2.11533 14.59714 18.29509
1349.871 100.9428 2252.409 1.08843 -2.456955 59.50014 6.631687 -10.69591 3.254907 -0 16.86492 -0 -9.526998 -8.495041 -4.437708 -2.434302 1.077226 -10.71575 -0 56.38377 -0 -9.091796 -6.214876 9.903472 0.5062898 0.7358492 3.734807 2.337985 7.83192 -6.417308 1.828125 23.72023 5.464821 2.368154 -22.09334 7.40372 4.215134 -14.41408 11.31586 87.63201 32.16946 -18.76333 -0 0 7.419473 -13.70898 11.73371 8.528097 2.760966 -18.4384 -2.725856 -90.80405 29.71202 17.90137 0 0 -16.69112 -0.648344 14.0352 16.20253
1354.546 102.0254 2255.37 2.399804 -2.246103 58.95857 5.681761 -5.051395 2.834091 -0 15.03987 -0 -8.809201 -9.934555 -3.591951 -2.494573 -5.309301 -9.574197 -0 59.90289 -0 -8.141184 -5.393245 11.00579 -0.2273648 0.9577709 5.029445 1.907487 8.48988 -5.714385 1.757161 23.93104 5.248457 2.394047 -21.24627 7.016049 4.385508 -15.18876 11.62773 86.29593 32.69514 -17.00569 -0 0 8.620507 -14.8426 12.13881 9.060675 3.048294 -18.64968 -2.493409 -90.78151 28.20027 18.2964 0 0 -16.44571 0.5643178 13.40658 14.26457
1359.045 102.7707 2258.173 3.649495 -2.039341 58.45869 4.862496 -0.08857284 2.427682 -0 12.60319 -0 -8.087931 -11.07244 -2.771109 -2.183146 -11.73758 -8.270386 -0 59.06804 -0 -7.140831 -5.739857 12.70842 -1.030554 1.312541 6.156056 1.377619 9.011793 -4.992005 1.700063 24.03774 5.059105 2.529695 -20.26176 6.567024 4.364259 -16.17423 11.83608 84.69217 33.13194 -14.77273 -0 0 10.35587 -16.15395 12.25507 9.640846 3.635506 -18.91548 -2.305888 -90.80987 26.79654 18.69183 0 0 -16.38387 1.48402 12.76831 12.59984
1363.405 102.9686 2260.836 4.502699 -1.919638 58.0269 4.40164 4.216124 2.088496 -0 10.15284 -0 -7.494295 -12.21532 -2.082041 -1.324862 -17.6181 -6.766228 -0 53.41043 -0 -6.090694 -6.567943 14.80877 -1.602141 1.648433 6.898899 0.8376147 9.305224 -4.345756 1.596311 24.01217 4.966494 2.661077 -19.32851 6.159559 4.060172 -17.35008 11.93496 82.99159 33.32327 -12.13252 -0 0 12.54626 -17.59831 12.06432 10.41338 4.291939 -19.0329 -2.164564 -91.00393 25.50144 19.29996 0 0 -16.1444 2.050117 12.1428 11.39246
1367.741 102.523 2263.41 4.713365 -1.919652 57.64395 4.342001 8.03086 1.82535 -0 8.31778 -0 -7.048965 -13.71339 -1.53948 0.06309104 -22.43079 -5.143611 -0 43.59526 -0 -5.113471 -7.150971 16.89265 -1.730843 1.792639 7.176914 0.3789956 9.311578 -3.858338 1.407167 23.85171 5.012636 2.688078 -18.62357 5.885201 3.451521 -18.6572 11.91069 81.39082 33.13862 -9.316869 -0 0 15.04906 -19.08294 11.5666 11.44665 4.777908 -18.84975 -2.057437 -91.40934 24.37808 20.2876 0 0 -15.49792 2.211087 11.53065 10.82828
1372.228 101.4895 2265.974 4.250591 -2.00405 57.25104 4.490233 11.47169 1.617991 -0 7.505813 -0 -6.667639 -15.63648 -1.050011 1.666197 -25.82922 -3.671569 -0 31.66786 -0 -4.411429 -7.074758 18.47642 -1.430122 1.619021 7.099229 0.06537699 9.050996 -3.571177 1.162911 23.58515 5.167994 2.585468 -18.24694 5.780321 2.631908 -19.95679 11.74134 80.05417 32.56608 -6.697745 -0 0 17.61401 -20.47649 10.81246 12.65727 4.951919 -18.34784 -1.958884 -91.95066 23.53323 21.62128 0 0 -14.44251 1.995385 10.93246 10.95288
1377.055 100.0664 2268.609 3.366696 -2.066443 56.77294 4.479284 14.52044 1.466978 -0 7.823074 -0 -6.207133 -17.52249 -0.4697457 2.906508 -27.75368 -2.756772 -0 20.67216 -0 -4.076294 -6.431358 19.27684 -0.9786458 1.111173 6.937523 -0.1007612 8.655975 -3.456234 0.9723662 23.26712 5.327009 2.421881 -18.18807 5.812915 1.804937 -21.04124 11.4275 79.07343 31.7514 -4.668978 -0 0 19.89262 -21.65869 9.941397 13.82609 4.832481 -17.65714 -1.840683 -92.46641 23.05602 23.03564 0 0 -13.17288 1.546636 10.36423 11.5727
1382.371 98.53552 2271.375 2.523205 -1.972743 56.16045 3.965105 17.08443 1.450689 -0 9.304195 -0 -5.554132 -18.41836 0.2561096 3.203485 -28.42532 -2.728096 -0 13.40822 -0 -3.950557 -5.708804 19.41361 -0.7795875 0.3791251 6.977628 -0.1895578 8.342312 -3.417068 0.966114 22.95205 5.366835 2.308881 -18.35276 5.914819 1.196818 -21.72747 11.02821 78.49787 30.91603 -3.485818 -0 0 21.54443 -22.57398 9.153821 14.71849 4.56179 -16.96647 -1.698145 -92.82201 22.939 24.2016 0 0 -11.9224 1.056914 9.842894 12.33705
